<?xml version="1.0" encoding="utf-8" standalone="no"?>
<!DOCTYPE svg PUBLIC "-//W3C//DTD SVG 1.1//EN"
  "http://www.w3.org/Graphics/SVG/1.1/DTD/svg11.dtd">
<svg xmlns:xlink="http://www.w3.org/1999/xlink" width="718.611406pt" height="228.557734pt" viewBox="0 0 718.611406 228.557734" xmlns="http://www.w3.org/2000/svg" version="1.1">
 <metadata>
  <rdf:RDF xmlns:dc="http://purl.org/dc/elements/1.1/" xmlns:cc="http://creativecommons.org/ns#" xmlns:rdf="http://www.w3.org/1999/02/22-rdf-syntax-ns#">
   <cc:Work>
    <dc:type rdf:resource="http://purl.org/dc/dcmitype/StillImage"/>
    <dc:date>2026-08-21T15:37:48.971305</dc:date>
    <dc:format>image/svg+xml</dc:format>
    <dc:creator>
     <cc:Agent>
      <dc:title>Matplotlib v3.11.1, https://matplotlib.org/</dc:title>
     </cc:Agent>
    </dc:creator>
   </cc:Work>
  </rdf:RDF>
 </metadata>
 <defs>
  <style type="text/css">*{stroke-linejoin: round; stroke-linecap: butt}</style>
 </defs>
 <g id="figure_1">
  <g id="patch_1">
   <path d="M 0 228.557734 
L 718.611406 228.557734 
L 718.611406 0 
L 0 0 
L 0 228.557734 
z
" style="fill: none"/>
  </g>
  <g id="axes_1">
   <g id="patch_2">
    <path d="M 40.811406 195.356563 
L 711.411406 195.356563 
L 711.411406 24.798438 
L 40.811406 24.798438 
L 40.811406 195.356563 
z
" style="fill: none"/>
   </g>
   <g id="matplotlib.axis_1">
    <g id="xtick_1">
     <g id="line2d_1">
      <path d="M 85.218604 195.356563 
L 85.218604 24.798438 
" clip-path="url(#p9d52fed967)" style="fill: none; stroke-dasharray: 0.7,1.155; stroke-dashoffset: 0; stroke: #283d58; stroke-width: 0.7"/>
     </g>
     <g id="line2d_2">
      <defs>
       <path id="meec7bf8da3" d="M 0 0 
L 0 3.5 
" style="stroke: #58a6ff; stroke-width: 0.8"/>
      </defs>
      <g>
       <use xlink:href="#meec7bf8da3" x="85.218604" y="195.356563" style="fill: #58a6ff; stroke: #58a6ff; stroke-width: 0.8"/>
      </g>
     </g>
     <g id="text_1">
      <!-- Dec '25 -->
      <g style="fill: #58a6ff" transform="translate(70.703995 207.674922) scale(0.07 -0.07)">
       <defs>
        <path id="DejaVuSans-Bold-27" d="M 1791 3756 
L 1791 909 
L 2222 909 
Q 2959 909 3348 1275 
Q 3738 1641 3738 2338 
Q 3738 3031 3350 3393 
Q 2963 3756 2222 3756 
L 1791 3756 
z
M 588 4666 
L 1856 4666 
Q 2919 4666 3439 4514 
Q 3959 4363 4331 4000 
Q 4659 3684 4818 3271 
Q 4978 2859 4978 2338 
Q 4978 1809 4818 1395 
Q 4659 981 4331 666 
Q 3956 303 3431 151 
Q 2906 0 1856 0 
L 588 0 
L 588 4666 
z
" transform="scale(0.015625)"/>
        <path id="DejaVuSans-Bold-48" d="M 4031 1759 
L 4031 1441 
L 1416 1441 
Q 1456 1047 1700 850 
Q 1944 653 2381 653 
Q 2734 653 3104 758 
Q 3475 863 3866 1075 
L 3866 213 
Q 3469 63 3072 -14 
Q 2675 -91 2278 -91 
Q 1328 -91 801 392 
Q 275 875 275 1747 
Q 275 2603 792 3093 
Q 1309 3584 2216 3584 
Q 3041 3584 3536 3087 
Q 4031 2591 4031 1759 
z
M 2881 2131 
Q 2881 2450 2695 2645 
Q 2509 2841 2209 2841 
Q 1884 2841 1681 2658 
Q 1478 2475 1428 2131 
L 2881 2131 
z
" transform="scale(0.015625)"/>
        <path id="DejaVuSans-Bold-46" d="M 3366 3391 
L 3366 2478 
Q 3138 2634 2908 2709 
Q 2678 2784 2431 2784 
Q 1963 2784 1702 2511 
Q 1441 2238 1441 1747 
Q 1441 1256 1702 982 
Q 1963 709 2431 709 
Q 2694 709 2930 787 
Q 3166 866 3366 1019 
L 3366 103 
Q 3103 6 2833 -42 
Q 2563 -91 2291 -91 
Q 1344 -91 809 395 
Q 275 881 275 1747 
Q 275 2613 809 3098 
Q 1344 3584 2291 3584 
Q 2566 3584 2833 3536 
Q 3100 3488 3366 3391 
z
" transform="scale(0.015625)"/>
        <path id="DejaVuSans-Bold-3" transform="scale(0.015625)"/>
        <path id="DejaVuSans-Bold-a" d="M 1350 4666 
L 1350 2931 
L 609 2931 
L 609 4666 
L 1350 4666 
z
" transform="scale(0.015625)"/>
        <path id="DejaVuSans-Bold-15" d="M 1844 884 
L 3897 884 
L 3897 0 
L 506 0 
L 506 884 
L 2209 2388 
Q 2438 2594 2547 2791 
Q 2656 2988 2656 3200 
Q 2656 3528 2436 3728 
Q 2216 3928 1850 3928 
Q 1569 3928 1234 3808 
Q 900 3688 519 3450 
L 519 4475 
Q 925 4609 1322 4679 
Q 1719 4750 2100 4750 
Q 2938 4750 3402 4381 
Q 3866 4013 3866 3353 
Q 3866 2972 3669 2642 
Q 3472 2313 2841 1759 
L 1844 884 
z
" transform="scale(0.015625)"/>
        <path id="DejaVuSans-Bold-18" d="M 678 4666 
L 3669 4666 
L 3669 3781 
L 1638 3781 
L 1638 3059 
Q 1775 3097 1914 3117 
Q 2053 3138 2203 3138 
Q 3056 3138 3531 2711 
Q 4006 2284 4006 1522 
Q 4006 766 3489 337 
Q 2972 -91 2053 -91 
Q 1656 -91 1267 -14 
Q 878 63 494 219 
L 494 1166 
Q 875 947 1217 837 
Q 1559 728 1863 728 
Q 2300 728 2551 942 
Q 2803 1156 2803 1522 
Q 2803 1891 2551 2103 
Q 2300 2316 1863 2316 
Q 1603 2316 1309 2248 
Q 1016 2181 678 2041 
L 678 4666 
z
" transform="scale(0.015625)"/>
       </defs>
       <use xlink:href="#DejaVuSans-Bold-27"/>
       <use xlink:href="#DejaVuSans-Bold-48" transform="translate(83.015625 0)"/>
       <use xlink:href="#DejaVuSans-Bold-46" transform="translate(150.84375 0)"/>
       <use xlink:href="#DejaVuSans-Bold-3" transform="translate(210.125 0)"/>
       <use xlink:href="#DejaVuSans-Bold-a" transform="translate(244.9375 0)"/>
       <use xlink:href="#DejaVuSans-Bold-15" transform="translate(275.546875 0)"/>
       <use xlink:href="#DejaVuSans-Bold-18" transform="translate(345.125 0)"/>
      </g>
     </g>
    </g>
    <g id="xtick_2">
     <g id="line2d_3">
      <path d="M 157.329756 195.356563 
L 157.329756 24.798438 
" clip-path="url(#p9d52fed967)" style="fill: none; stroke-dasharray: 0.7,1.155; stroke-dashoffset: 0; stroke: #283d58; stroke-width: 0.7"/>
     </g>
     <g id="line2d_4">
      <g>
       <use xlink:href="#meec7bf8da3" x="157.329756" y="195.356563" style="fill: #58a6ff; stroke: #58a6ff; stroke-width: 0.8"/>
      </g>
     </g>
     <g id="text_2">
      <!-- Jan '26 -->
      <g style="fill: #58a6ff" transform="translate(144.013897 207.674922) scale(0.07 -0.07)">
       <defs>
        <path id="DejaVuSans-Bold-2d" d="M 588 4666 
L 1791 4666 
L 1791 453 
Q 1791 -419 1317 -850 
Q 844 -1281 -116 -1281 
L -359 -1281 
L -359 -372 
L -172 -372 
Q 203 -372 395 -162 
Q 588 47 588 453 
L 588 4666 
z
" transform="scale(0.015625)"/>
        <path id="DejaVuSans-Bold-44" d="M 2106 1575 
Q 1756 1575 1579 1456 
Q 1403 1338 1403 1106 
Q 1403 894 1545 773 
Q 1688 653 1941 653 
Q 2256 653 2472 879 
Q 2688 1106 2688 1447 
L 2688 1575 
L 2106 1575 
z
M 3816 1997 
L 3816 0 
L 2688 0 
L 2688 519 
Q 2463 200 2181 54 
Q 1900 -91 1497 -91 
Q 953 -91 614 226 
Q 275 544 275 1050 
Q 275 1666 698 1953 
Q 1122 2241 2028 2241 
L 2688 2241 
L 2688 2328 
Q 2688 2594 2478 2717 
Q 2269 2841 1825 2841 
Q 1466 2841 1156 2769 
Q 847 2697 581 2553 
L 581 3406 
Q 941 3494 1303 3539 
Q 1666 3584 2028 3584 
Q 2975 3584 3395 3211 
Q 3816 2838 3816 1997 
z
" transform="scale(0.015625)"/>
        <path id="DejaVuSans-Bold-51" d="M 4056 2131 
L 4056 0 
L 2931 0 
L 2931 347 
L 2931 1631 
Q 2931 2084 2911 2256 
Q 2891 2428 2841 2509 
Q 2775 2619 2662 2680 
Q 2550 2741 2406 2741 
Q 2056 2741 1856 2470 
Q 1656 2200 1656 1722 
L 1656 0 
L 538 0 
L 538 3500 
L 1656 3500 
L 1656 2988 
Q 1909 3294 2193 3439 
Q 2478 3584 2822 3584 
Q 3428 3584 3742 3212 
Q 4056 2841 4056 2131 
z
" transform="scale(0.015625)"/>
        <path id="DejaVuSans-Bold-19" d="M 2316 2303 
Q 2000 2303 1842 2098 
Q 1684 1894 1684 1484 
Q 1684 1075 1842 870 
Q 2000 666 2316 666 
Q 2634 666 2792 870 
Q 2950 1075 2950 1484 
Q 2950 1894 2792 2098 
Q 2634 2303 2316 2303 
z
M 3803 4544 
L 3803 3681 
Q 3506 3822 3243 3889 
Q 2981 3956 2731 3956 
Q 2194 3956 1894 3657 
Q 1594 3359 1544 2772 
Q 1750 2925 1990 3001 
Q 2231 3078 2516 3078 
Q 3231 3078 3670 2659 
Q 4109 2241 4109 1563 
Q 4109 813 3618 361 
Q 3128 -91 2303 -91 
Q 1394 -91 895 523 
Q 397 1138 397 2266 
Q 397 3422 980 4083 
Q 1563 4744 2578 4744 
Q 2900 4744 3203 4694 
Q 3506 4644 3803 4544 
z
" transform="scale(0.015625)"/>
       </defs>
       <use xlink:href="#DejaVuSans-Bold-2d"/>
       <use xlink:href="#DejaVuSans-Bold-44" transform="translate(37.203125 0)"/>
       <use xlink:href="#DejaVuSans-Bold-51" transform="translate(104.6875 0)"/>
       <use xlink:href="#DejaVuSans-Bold-3" transform="translate(175.875 0)"/>
       <use xlink:href="#DejaVuSans-Bold-a" transform="translate(210.6875 0)"/>
       <use xlink:href="#DejaVuSans-Bold-15" transform="translate(241.296875 0)"/>
       <use xlink:href="#DejaVuSans-Bold-19" transform="translate(310.875 0)"/>
      </g>
     </g>
    </g>
    <g id="xtick_3">
     <g id="line2d_5">
      <path d="M 229.440908 195.356563 
L 229.440908 24.798438 
" clip-path="url(#p9d52fed967)" style="fill: none; stroke-dasharray: 0.7,1.155; stroke-dashoffset: 0; stroke: #283d58; stroke-width: 0.7"/>
     </g>
     <g id="line2d_6">
      <g>
       <use xlink:href="#meec7bf8da3" x="229.440908" y="195.356563" style="fill: #58a6ff; stroke: #58a6ff; stroke-width: 0.8"/>
      </g>
     </g>
     <g id="text_3">
      <!-- Feb '26 -->
      <g style="fill: #58a6ff" transform="translate(215.152158 207.675469) scale(0.07 -0.07)">
       <defs>
        <path id="DejaVuSans-Bold-29" d="M 588 4666 
L 3834 4666 
L 3834 3756 
L 1791 3756 
L 1791 2888 
L 3713 2888 
L 3713 1978 
L 1791 1978 
L 1791 0 
L 588 0 
L 588 4666 
z
" transform="scale(0.015625)"/>
        <path id="DejaVuSans-Bold-45" d="M 2400 722 
Q 2759 722 2948 984 
Q 3138 1247 3138 1747 
Q 3138 2247 2948 2509 
Q 2759 2772 2400 2772 
Q 2041 2772 1848 2508 
Q 1656 2244 1656 1747 
Q 1656 1250 1848 986 
Q 2041 722 2400 722 
z
M 1656 2988 
Q 1888 3294 2169 3439 
Q 2450 3584 2816 3584 
Q 3463 3584 3878 3070 
Q 4294 2556 4294 1747 
Q 4294 938 3878 423 
Q 3463 -91 2816 -91 
Q 2450 -91 2169 54 
Q 1888 200 1656 506 
L 1656 0 
L 538 0 
L 538 4863 
L 1656 4863 
L 1656 2988 
z
" transform="scale(0.015625)"/>
       </defs>
       <use xlink:href="#DejaVuSans-Bold-29"/>
       <use xlink:href="#DejaVuSans-Bold-48" transform="translate(64.265625 0)"/>
       <use xlink:href="#DejaVuSans-Bold-45" transform="translate(132.09375 0)"/>
       <use xlink:href="#DejaVuSans-Bold-3" transform="translate(203.671875 0)"/>
       <use xlink:href="#DejaVuSans-Bold-a" transform="translate(238.484375 0)"/>
       <use xlink:href="#DejaVuSans-Bold-15" transform="translate(269.09375 0)"/>
       <use xlink:href="#DejaVuSans-Bold-19" transform="translate(338.671875 0)"/>
      </g>
     </g>
    </g>
    <g id="xtick_4">
     <g id="line2d_7">
      <path d="M 294.573562 195.356563 
L 294.573562 24.798438 
" clip-path="url(#p9d52fed967)" style="fill: none; stroke-dasharray: 0.7,1.155; stroke-dashoffset: 0; stroke: #283d58; stroke-width: 0.7"/>
     </g>
     <g id="line2d_8">
      <g>
       <use xlink:href="#meec7bf8da3" x="294.573562" y="195.356563" style="fill: #58a6ff; stroke: #58a6ff; stroke-width: 0.8"/>
      </g>
     </g>
     <g id="text_4">
      <!-- Mar '26 -->
      <g style="fill: #58a6ff" transform="translate(279.84239 207.674922) scale(0.07 -0.07)">
       <defs>
        <path id="DejaVuSans-Bold-30" d="M 588 4666 
L 2119 4666 
L 3181 2169 
L 4250 4666 
L 5778 4666 
L 5778 0 
L 4641 0 
L 4641 3413 
L 3566 897 
L 2803 897 
L 1728 3413 
L 1728 0 
L 588 0 
L 588 4666 
z
" transform="scale(0.015625)"/>
        <path id="DejaVuSans-Bold-55" d="M 3138 2547 
Q 2991 2616 2845 2648 
Q 2700 2681 2553 2681 
Q 2122 2681 1889 2404 
Q 1656 2128 1656 1613 
L 1656 0 
L 538 0 
L 538 3500 
L 1656 3500 
L 1656 2925 
Q 1872 3269 2151 3426 
Q 2431 3584 2822 3584 
Q 2878 3584 2943 3579 
Q 3009 3575 3134 3559 
L 3138 2547 
z
" transform="scale(0.015625)"/>
       </defs>
       <use xlink:href="#DejaVuSans-Bold-30"/>
       <use xlink:href="#DejaVuSans-Bold-44" transform="translate(99.515625 0)"/>
       <use xlink:href="#DejaVuSans-Bold-55" transform="translate(167 0)"/>
       <use xlink:href="#DejaVuSans-Bold-3" transform="translate(216.3125 0)"/>
       <use xlink:href="#DejaVuSans-Bold-a" transform="translate(251.125 0)"/>
       <use xlink:href="#DejaVuSans-Bold-15" transform="translate(281.734375 0)"/>
       <use xlink:href="#DejaVuSans-Bold-19" transform="translate(351.3125 0)"/>
      </g>
     </g>
    </g>
    <g id="xtick_5">
     <g id="line2d_9">
      <path d="M 366.684714 195.356563 
L 366.684714 24.798438 
" clip-path="url(#p9d52fed967)" style="fill: none; stroke-dasharray: 0.7,1.155; stroke-dashoffset: 0; stroke: #283d58; stroke-width: 0.7"/>
     </g>
     <g id="line2d_10">
      <g>
       <use xlink:href="#meec7bf8da3" x="366.684714" y="195.356563" style="fill: #58a6ff; stroke: #58a6ff; stroke-width: 0.8"/>
      </g>
     </g>
     <g id="text_5">
      <!-- Apr '26 -->
      <g style="fill: #58a6ff" transform="translate(352.584636 207.674922) scale(0.07 -0.07)">
       <defs>
        <path id="DejaVuSans-Bold-24" d="M 3419 850 
L 1538 850 
L 1241 0 
L 31 0 
L 1759 4666 
L 3194 4666 
L 4922 0 
L 3713 0 
L 3419 850 
z
M 1838 1716 
L 3116 1716 
L 2478 3572 
L 1838 1716 
z
" transform="scale(0.015625)"/>
        <path id="DejaVuSans-Bold-53" d="M 1656 506 
L 1656 -1331 
L 538 -1331 
L 538 3500 
L 1656 3500 
L 1656 2988 
Q 1888 3294 2169 3439 
Q 2450 3584 2816 3584 
Q 3463 3584 3878 3070 
Q 4294 2556 4294 1747 
Q 4294 938 3878 423 
Q 3463 -91 2816 -91 
Q 2450 -91 2169 54 
Q 1888 200 1656 506 
z
M 2400 2772 
Q 2041 2772 1848 2508 
Q 1656 2244 1656 1747 
Q 1656 1250 1848 986 
Q 2041 722 2400 722 
Q 2759 722 2948 984 
Q 3138 1247 3138 1747 
Q 3138 2247 2948 2509 
Q 2759 2772 2400 2772 
z
" transform="scale(0.015625)"/>
       </defs>
       <use xlink:href="#DejaVuSans-Bold-24"/>
       <use xlink:href="#DejaVuSans-Bold-53" transform="translate(77.390625 0)"/>
       <use xlink:href="#DejaVuSans-Bold-55" transform="translate(148.96875 0)"/>
       <use xlink:href="#DejaVuSans-Bold-3" transform="translate(198.28125 0)"/>
       <use xlink:href="#DejaVuSans-Bold-a" transform="translate(233.09375 0)"/>
       <use xlink:href="#DejaVuSans-Bold-15" transform="translate(263.703125 0)"/>
       <use xlink:href="#DejaVuSans-Bold-19" transform="translate(333.28125 0)"/>
      </g>
     </g>
    </g>
    <g id="xtick_6">
     <g id="line2d_11">
      <path d="M 436.4697 195.356563 
L 436.4697 24.798438 
" clip-path="url(#p9d52fed967)" style="fill: none; stroke-dasharray: 0.7,1.155; stroke-dashoffset: 0; stroke: #283d58; stroke-width: 0.7"/>
     </g>
     <g id="line2d_12">
      <g>
       <use xlink:href="#meec7bf8da3" x="436.4697" y="195.356563" style="fill: #58a6ff; stroke: #58a6ff; stroke-width: 0.8"/>
      </g>
     </g>
     <g id="text_6">
      <!-- May '26 -->
      <g style="fill: #58a6ff" transform="translate(421.290637 207.674922) scale(0.07 -0.07)">
       <defs>
        <path id="DejaVuSans-Bold-5c" d="M 78 3500 
L 1197 3500 
L 2138 1125 
L 2938 3500 
L 4056 3500 
L 2584 -331 
Q 2363 -916 2067 -1148 
Q 1772 -1381 1288 -1381 
L 641 -1381 
L 641 -647 
L 991 -647 
Q 1275 -647 1404 -556 
Q 1534 -466 1606 -231 
L 1638 -134 
L 78 3500 
z
" transform="scale(0.015625)"/>
       </defs>
       <use xlink:href="#DejaVuSans-Bold-30"/>
       <use xlink:href="#DejaVuSans-Bold-44" transform="translate(99.515625 0)"/>
       <use xlink:href="#DejaVuSans-Bold-5c" transform="translate(163.921875 0)"/>
       <use xlink:href="#DejaVuSans-Bold-3" transform="translate(229.109375 0)"/>
       <use xlink:href="#DejaVuSans-Bold-a" transform="translate(263.921875 0)"/>
       <use xlink:href="#DejaVuSans-Bold-15" transform="translate(294.53125 0)"/>
       <use xlink:href="#DejaVuSans-Bold-19" transform="translate(364.109375 0)"/>
      </g>
     </g>
    </g>
    <g id="xtick_7">
     <g id="line2d_13">
      <path d="M 508.580852 195.356563 
L 508.580852 24.798438 
" clip-path="url(#p9d52fed967)" style="fill: none; stroke-dasharray: 0.7,1.155; stroke-dashoffset: 0; stroke: #283d58; stroke-width: 0.7"/>
     </g>
     <g id="line2d_14">
      <g>
       <use xlink:href="#meec7bf8da3" x="508.580852" y="195.356563" style="fill: #58a6ff; stroke: #58a6ff; stroke-width: 0.8"/>
      </g>
     </g>
     <g id="text_7">
      <!-- Jun '26 -->
      <g style="fill: #58a6ff" transform="translate(495.135383 207.674922) scale(0.07 -0.07)">
       <defs>
        <path id="DejaVuSans-Bold-58" d="M 500 1363 
L 500 3500 
L 1625 3500 
L 1625 3150 
Q 1625 2866 1622 2436 
Q 1619 2006 1619 1863 
Q 1619 1441 1641 1255 
Q 1663 1069 1716 984 
Q 1784 875 1895 815 
Q 2006 756 2150 756 
Q 2500 756 2700 1025 
Q 2900 1294 2900 1772 
L 2900 3500 
L 4019 3500 
L 4019 0 
L 2900 0 
L 2900 506 
Q 2647 200 2364 54 
Q 2081 -91 1741 -91 
Q 1134 -91 817 281 
Q 500 653 500 1363 
z
" transform="scale(0.015625)"/>
       </defs>
       <use xlink:href="#DejaVuSans-Bold-2d"/>
       <use xlink:href="#DejaVuSans-Bold-58" transform="translate(37.203125 0)"/>
       <use xlink:href="#DejaVuSans-Bold-51" transform="translate(108.390625 0)"/>
       <use xlink:href="#DejaVuSans-Bold-3" transform="translate(179.578125 0)"/>
       <use xlink:href="#DejaVuSans-Bold-a" transform="translate(214.390625 0)"/>
       <use xlink:href="#DejaVuSans-Bold-15" transform="translate(245 0)"/>
       <use xlink:href="#DejaVuSans-Bold-19" transform="translate(314.578125 0)"/>
      </g>
     </g>
    </g>
    <g id="xtick_8">
     <g id="line2d_15">
      <path d="M 578.365838 195.356563 
L 578.365838 24.798438 
" clip-path="url(#p9d52fed967)" style="fill: none; stroke-dasharray: 0.7,1.155; stroke-dashoffset: 0; stroke: #283d58; stroke-width: 0.7"/>
     </g>
     <g id="line2d_16">
      <g>
       <use xlink:href="#meec7bf8da3" x="578.365838" y="195.356563" style="fill: #58a6ff; stroke: #58a6ff; stroke-width: 0.8"/>
      </g>
     </g>
     <g id="text_8">
      <!-- Jul '26 -->
      <g style="fill: #58a6ff" transform="translate(566.212088 207.675469) scale(0.07 -0.07)">
       <defs>
        <path id="DejaVuSans-Bold-4f" d="M 538 4863 
L 1656 4863 
L 1656 0 
L 538 0 
L 538 4863 
z
" transform="scale(0.015625)"/>
       </defs>
       <use xlink:href="#DejaVuSans-Bold-2d"/>
       <use xlink:href="#DejaVuSans-Bold-58" transform="translate(37.203125 0)"/>
       <use xlink:href="#DejaVuSans-Bold-4f" transform="translate(108.390625 0)"/>
       <use xlink:href="#DejaVuSans-Bold-3" transform="translate(142.671875 0)"/>
       <use xlink:href="#DejaVuSans-Bold-a" transform="translate(177.484375 0)"/>
       <use xlink:href="#DejaVuSans-Bold-15" transform="translate(208.09375 0)"/>
       <use xlink:href="#DejaVuSans-Bold-19" transform="translate(277.671875 0)"/>
      </g>
     </g>
    </g>
    <g id="xtick_9">
     <g id="line2d_17">
      <path d="M 650.47699 195.356563 
L 650.47699 24.798438 
" clip-path="url(#p9d52fed967)" style="fill: none; stroke-dasharray: 0.7,1.155; stroke-dashoffset: 0; stroke: #283d58; stroke-width: 0.7"/>
     </g>
     <g id="line2d_18">
      <g>
       <use xlink:href="#meec7bf8da3" x="650.47699" y="195.356563" style="fill: #58a6ff; stroke: #58a6ff; stroke-width: 0.8"/>
      </g>
     </g>
     <g id="text_9">
      <!-- Aug '26 -->
      <g style="fill: #58a6ff" transform="translate(635.611286 207.674922) scale(0.07 -0.07)">
       <defs>
        <path id="DejaVuSans-Bold-4a" d="M 2919 594 
Q 2688 288 2409 144 
Q 2131 0 1766 0 
Q 1125 0 706 504 
Q 288 1009 288 1791 
Q 288 2575 706 3076 
Q 1125 3578 1766 3578 
Q 2131 3578 2409 3434 
Q 2688 3291 2919 2981 
L 2919 3500 
L 4044 3500 
L 4044 353 
Q 4044 -491 3511 -936 
Q 2978 -1381 1966 -1381 
Q 1638 -1381 1331 -1331 
Q 1025 -1281 716 -1178 
L 716 -306 
Q 1009 -475 1290 -558 
Q 1572 -641 1856 -641 
Q 2406 -641 2662 -400 
Q 2919 -159 2919 353 
L 2919 594 
z
M 2181 2772 
Q 1834 2772 1640 2515 
Q 1447 2259 1447 1791 
Q 1447 1309 1634 1061 
Q 1822 813 2181 813 
Q 2531 813 2725 1069 
Q 2919 1325 2919 1791 
Q 2919 2259 2725 2515 
Q 2531 2772 2181 2772 
z
" transform="scale(0.015625)"/>
       </defs>
       <use xlink:href="#DejaVuSans-Bold-24"/>
       <use xlink:href="#DejaVuSans-Bold-58" transform="translate(77.390625 0)"/>
       <use xlink:href="#DejaVuSans-Bold-4a" transform="translate(148.578125 0)"/>
       <use xlink:href="#DejaVuSans-Bold-3" transform="translate(220.15625 0)"/>
       <use xlink:href="#DejaVuSans-Bold-a" transform="translate(254.96875 0)"/>
       <use xlink:href="#DejaVuSans-Bold-15" transform="translate(285.578125 0)"/>
       <use xlink:href="#DejaVuSans-Bold-19" transform="translate(355.15625 0)"/>
      </g>
     </g>
    </g>
    <g id="text_10">
     <!-- Month -->
     <g style="fill: #58a6ff" transform="translate(361.775781 219.435859) scale(0.08 -0.08)">
      <defs>
       <path id="DejaVuSans-Bold-52" d="M 2203 2784 
Q 1831 2784 1636 2517 
Q 1441 2250 1441 1747 
Q 1441 1244 1636 976 
Q 1831 709 2203 709 
Q 2569 709 2762 976 
Q 2956 1244 2956 1747 
Q 2956 2250 2762 2517 
Q 2569 2784 2203 2784 
z
M 2203 3584 
Q 3106 3584 3614 3096 
Q 4122 2609 4122 1747 
Q 4122 884 3614 396 
Q 3106 -91 2203 -91 
Q 1297 -91 786 396 
Q 275 884 275 1747 
Q 275 2609 786 3096 
Q 1297 3584 2203 3584 
z
" transform="scale(0.015625)"/>
       <path id="DejaVuSans-Bold-57" d="M 1759 4494 
L 1759 3500 
L 2913 3500 
L 2913 2700 
L 1759 2700 
L 1759 1216 
Q 1759 972 1856 886 
Q 1953 800 2241 800 
L 2816 800 
L 2816 0 
L 1856 0 
Q 1194 0 917 276 
Q 641 553 641 1216 
L 641 2700 
L 84 2700 
L 84 3500 
L 641 3500 
L 641 4494 
L 1759 4494 
z
" transform="scale(0.015625)"/>
       <path id="DejaVuSans-Bold-4b" d="M 4056 2131 
L 4056 0 
L 2931 0 
L 2931 347 
L 2931 1625 
Q 2931 2084 2911 2256 
Q 2891 2428 2841 2509 
Q 2775 2619 2662 2680 
Q 2550 2741 2406 2741 
Q 2056 2741 1856 2470 
Q 1656 2200 1656 1722 
L 1656 0 
L 538 0 
L 538 4863 
L 1656 4863 
L 1656 2988 
Q 1909 3294 2193 3439 
Q 2478 3584 2822 3584 
Q 3428 3584 3742 3212 
Q 4056 2841 4056 2131 
z
" transform="scale(0.015625)"/>
      </defs>
      <use xlink:href="#DejaVuSans-Bold-30"/>
      <use xlink:href="#DejaVuSans-Bold-52" transform="translate(99.515625 0)"/>
      <use xlink:href="#DejaVuSans-Bold-51" transform="translate(168.21875 0)"/>
      <use xlink:href="#DejaVuSans-Bold-57" transform="translate(239.40625 0)"/>
      <use xlink:href="#DejaVuSans-Bold-4b" transform="translate(287.203125 0)"/>
     </g>
    </g>
   </g>
   <g id="matplotlib.axis_2">
    <g id="ytick_1">
     <g id="line2d_19">
      <path d="M 40.811406 195.356563 
L 711.411406 195.356563 
" clip-path="url(#p9d52fed967)" style="fill: none; stroke-dasharray: 0.7,1.155; stroke-dashoffset: 0; stroke: #283d58; stroke-width: 0.7"/>
     </g>
     <g id="line2d_20">
      <defs>
       <path id="m140e3be339" d="M 0 0 
L -3.5 0 
" style="stroke: #58a6ff; stroke-width: 0.8"/>
      </defs>
      <g>
       <use xlink:href="#m140e3be339" x="40.811406" y="195.356563" style="fill: #58a6ff; stroke: #58a6ff; stroke-width: 0.8"/>
      </g>
     </g>
     <g id="text_11">
      <!-- 0 -->
      <g style="fill: #58a6ff" transform="translate(28.940938 198.015742) scale(0.07 -0.07)">
       <defs>
        <path id="DejaVuSans-Bold-13" d="M 2944 2338 
Q 2944 3213 2780 3570 
Q 2616 3928 2228 3928 
Q 1841 3928 1675 3570 
Q 1509 3213 1509 2338 
Q 1509 1453 1675 1090 
Q 1841 728 2228 728 
Q 2613 728 2778 1090 
Q 2944 1453 2944 2338 
z
M 4147 2328 
Q 4147 1169 3647 539 
Q 3147 -91 2228 -91 
Q 1306 -91 806 539 
Q 306 1169 306 2328 
Q 306 3491 806 4120 
Q 1306 4750 2228 4750 
Q 3147 4750 3647 4120 
Q 4147 3491 4147 2328 
z
" transform="scale(0.015625)"/>
       </defs>
       <use xlink:href="#DejaVuSans-Bold-13"/>
      </g>
     </g>
    </g>
    <g id="ytick_2">
     <g id="line2d_21">
      <path d="M 40.811406 172.615479 
L 711.411406 172.615479 
" clip-path="url(#p9d52fed967)" style="fill: none; stroke-dasharray: 0.7,1.155; stroke-dashoffset: 0; stroke: #283d58; stroke-width: 0.7"/>
     </g>
     <g id="line2d_22">
      <g>
       <use xlink:href="#m140e3be339" x="40.811406" y="172.615479" style="fill: #58a6ff; stroke: #58a6ff; stroke-width: 0.8"/>
      </g>
     </g>
     <g id="text_12">
      <!-- 31 -->
      <g style="fill: #58a6ff" transform="translate(24.070469 175.274659) scale(0.07 -0.07)">
       <defs>
        <path id="DejaVuSans-Bold-16" d="M 2981 2516 
Q 3453 2394 3698 2092 
Q 3944 1791 3944 1325 
Q 3944 631 3412 270 
Q 2881 -91 1863 -91 
Q 1503 -91 1142 -33 
Q 781 25 428 141 
L 428 1069 
Q 766 900 1098 814 
Q 1431 728 1753 728 
Q 2231 728 2486 893 
Q 2741 1059 2741 1369 
Q 2741 1688 2480 1852 
Q 2219 2016 1709 2016 
L 1228 2016 
L 1228 2791 
L 1734 2791 
Q 2188 2791 2409 2933 
Q 2631 3075 2631 3366 
Q 2631 3634 2415 3781 
Q 2200 3928 1806 3928 
Q 1516 3928 1219 3862 
Q 922 3797 628 3669 
L 628 4550 
Q 984 4650 1334 4700 
Q 1684 4750 2022 4750 
Q 2931 4750 3382 4451 
Q 3834 4153 3834 3553 
Q 3834 3144 3618 2883 
Q 3403 2622 2981 2516 
z
" transform="scale(0.015625)"/>
        <path id="DejaVuSans-Bold-14" d="M 750 831 
L 1813 831 
L 1813 3847 
L 722 3622 
L 722 4441 
L 1806 4666 
L 2950 4666 
L 2950 831 
L 4013 831 
L 4013 0 
L 750 0 
L 750 831 
z
" transform="scale(0.015625)"/>
       </defs>
       <use xlink:href="#DejaVuSans-Bold-16"/>
       <use xlink:href="#DejaVuSans-Bold-14" transform="translate(69.578125 0)"/>
      </g>
     </g>
    </g>
    <g id="ytick_3">
     <g id="line2d_23">
      <path d="M 40.811406 149.874396 
L 711.411406 149.874396 
" clip-path="url(#p9d52fed967)" style="fill: none; stroke-dasharray: 0.7,1.155; stroke-dashoffset: 0; stroke: #283d58; stroke-width: 0.7"/>
     </g>
     <g id="line2d_24">
      <g>
       <use xlink:href="#m140e3be339" x="40.811406" y="149.874396" style="fill: #58a6ff; stroke: #58a6ff; stroke-width: 0.8"/>
      </g>
     </g>
     <g id="text_13">
      <!-- 62 -->
      <g style="fill: #58a6ff" transform="translate(24.070469 152.533576) scale(0.07 -0.07)">
       <use xlink:href="#DejaVuSans-Bold-19"/>
       <use xlink:href="#DejaVuSans-Bold-15" transform="translate(69.578125 0)"/>
      </g>
     </g>
    </g>
    <g id="ytick_4">
     <g id="line2d_25">
      <path d="M 40.811406 127.133313 
L 711.411406 127.133313 
" clip-path="url(#p9d52fed967)" style="fill: none; stroke-dasharray: 0.7,1.155; stroke-dashoffset: 0; stroke: #283d58; stroke-width: 0.7"/>
     </g>
     <g id="line2d_26">
      <g>
       <use xlink:href="#m140e3be339" x="40.811406" y="127.133313" style="fill: #58a6ff; stroke: #58a6ff; stroke-width: 0.8"/>
      </g>
     </g>
     <g id="text_14">
      <!-- 93 -->
      <g style="fill: #58a6ff" transform="translate(24.070469 129.792492) scale(0.07 -0.07)">
       <defs>
        <path id="DejaVuSans-Bold-1c" d="M 641 103 
L 641 966 
Q 928 831 1190 764 
Q 1453 697 1709 697 
Q 2247 697 2547 995 
Q 2847 1294 2900 1881 
Q 2688 1725 2447 1647 
Q 2206 1569 1925 1569 
Q 1209 1569 770 1986 
Q 331 2403 331 3084 
Q 331 3838 820 4291 
Q 1309 4744 2131 4744 
Q 3044 4744 3544 4128 
Q 4044 3513 4044 2388 
Q 4044 1231 3459 570 
Q 2875 -91 1856 -91 
Q 1528 -91 1228 -42 
Q 928 6 641 103 
z
M 2125 2350 
Q 2441 2350 2600 2554 
Q 2759 2759 2759 3169 
Q 2759 3575 2600 3781 
Q 2441 3988 2125 3988 
Q 1809 3988 1650 3781 
Q 1491 3575 1491 3169 
Q 1491 2759 1650 2554 
Q 1809 2350 2125 2350 
z
" transform="scale(0.015625)"/>
       </defs>
       <use xlink:href="#DejaVuSans-Bold-1c"/>
       <use xlink:href="#DejaVuSans-Bold-16" transform="translate(69.578125 0)"/>
      </g>
     </g>
    </g>
    <g id="ytick_5">
     <g id="line2d_27">
      <path d="M 40.811406 104.392229 
L 711.411406 104.392229 
" clip-path="url(#p9d52fed967)" style="fill: none; stroke-dasharray: 0.7,1.155; stroke-dashoffset: 0; stroke: #283d58; stroke-width: 0.7"/>
     </g>
     <g id="line2d_28">
      <g>
       <use xlink:href="#m140e3be339" x="40.811406" y="104.392229" style="fill: #58a6ff; stroke: #58a6ff; stroke-width: 0.8"/>
      </g>
     </g>
     <g id="text_15">
      <!-- 124 -->
      <g style="fill: #58a6ff" transform="translate(19.2 107.051409) scale(0.07 -0.07)">
       <defs>
        <path id="DejaVuSans-Bold-17" d="M 2356 3675 
L 1038 1722 
L 2356 1722 
L 2356 3675 
z
M 2156 4666 
L 3494 4666 
L 3494 1722 
L 4159 1722 
L 4159 850 
L 3494 850 
L 3494 0 
L 2356 0 
L 2356 850 
L 288 850 
L 288 1881 
L 2156 4666 
z
" transform="scale(0.015625)"/>
       </defs>
       <use xlink:href="#DejaVuSans-Bold-14"/>
       <use xlink:href="#DejaVuSans-Bold-15" transform="translate(69.578125 0)"/>
       <use xlink:href="#DejaVuSans-Bold-17" transform="translate(139.15625 0)"/>
      </g>
     </g>
    </g>
    <g id="ytick_6">
     <g id="line2d_29">
      <path d="M 40.811406 81.651146 
L 711.411406 81.651146 
" clip-path="url(#p9d52fed967)" style="fill: none; stroke-dasharray: 0.7,1.155; stroke-dashoffset: 0; stroke: #283d58; stroke-width: 0.7"/>
     </g>
     <g id="line2d_30">
      <g>
       <use xlink:href="#m140e3be339" x="40.811406" y="81.651146" style="fill: #58a6ff; stroke: #58a6ff; stroke-width: 0.8"/>
      </g>
     </g>
     <g id="text_16">
      <!-- 155 -->
      <g style="fill: #58a6ff" transform="translate(19.2 84.310326) scale(0.07 -0.07)">
       <use xlink:href="#DejaVuSans-Bold-14"/>
       <use xlink:href="#DejaVuSans-Bold-18" transform="translate(69.578125 0)"/>
       <use xlink:href="#DejaVuSans-Bold-18" transform="translate(139.15625 0)"/>
      </g>
     </g>
    </g>
    <g id="ytick_7">
     <g id="line2d_31">
      <path d="M 40.811406 58.910063 
L 711.411406 58.910063 
" clip-path="url(#p9d52fed967)" style="fill: none; stroke-dasharray: 0.7,1.155; stroke-dashoffset: 0; stroke: #283d58; stroke-width: 0.7"/>
     </g>
     <g id="line2d_32">
      <g>
       <use xlink:href="#m140e3be339" x="40.811406" y="58.910063" style="fill: #58a6ff; stroke: #58a6ff; stroke-width: 0.8"/>
      </g>
     </g>
     <g id="text_17">
      <!-- 186 -->
      <g style="fill: #58a6ff" transform="translate(19.2 61.569242) scale(0.07 -0.07)">
       <defs>
        <path id="DejaVuSans-Bold-1b" d="M 2228 2088 
Q 1891 2088 1709 1903 
Q 1528 1719 1528 1375 
Q 1528 1031 1709 848 
Q 1891 666 2228 666 
Q 2563 666 2741 848 
Q 2919 1031 2919 1375 
Q 2919 1722 2741 1905 
Q 2563 2088 2228 2088 
z
M 1350 2484 
Q 925 2613 709 2878 
Q 494 3144 494 3541 
Q 494 4131 934 4440 
Q 1375 4750 2228 4750 
Q 3075 4750 3515 4442 
Q 3956 4134 3956 3541 
Q 3956 3144 3739 2878 
Q 3522 2613 3097 2484 
Q 3572 2353 3814 2058 
Q 4056 1763 4056 1313 
Q 4056 619 3595 264 
Q 3134 -91 2228 -91 
Q 1319 -91 855 264 
Q 391 619 391 1313 
Q 391 1763 633 2058 
Q 875 2353 1350 2484 
z
M 1631 3419 
Q 1631 3141 1786 2991 
Q 1941 2841 2228 2841 
Q 2509 2841 2662 2991 
Q 2816 3141 2816 3419 
Q 2816 3697 2662 3845 
Q 2509 3994 2228 3994 
Q 1941 3994 1786 3844 
Q 1631 3694 1631 3419 
z
" transform="scale(0.015625)"/>
       </defs>
       <use xlink:href="#DejaVuSans-Bold-14"/>
       <use xlink:href="#DejaVuSans-Bold-1b" transform="translate(69.578125 0)"/>
       <use xlink:href="#DejaVuSans-Bold-19" transform="translate(139.15625 0)"/>
      </g>
     </g>
    </g>
    <g id="ytick_8">
     <g id="line2d_33">
      <path d="M 40.811406 36.168979 
L 711.411406 36.168979 
" clip-path="url(#p9d52fed967)" style="fill: none; stroke-dasharray: 0.7,1.155; stroke-dashoffset: 0; stroke: #283d58; stroke-width: 0.7"/>
     </g>
     <g id="line2d_34">
      <g>
       <use xlink:href="#m140e3be339" x="40.811406" y="36.168979" style="fill: #58a6ff; stroke: #58a6ff; stroke-width: 0.8"/>
      </g>
     </g>
     <g id="text_18">
      <!-- 217 -->
      <g style="fill: #58a6ff" transform="translate(19.2 38.828159) scale(0.07 -0.07)">
       <defs>
        <path id="DejaVuSans-Bold-1a" d="M 428 4666 
L 3944 4666 
L 3944 3988 
L 2125 0 
L 953 0 
L 2675 3781 
L 428 3781 
L 428 4666 
z
" transform="scale(0.015625)"/>
       </defs>
       <use xlink:href="#DejaVuSans-Bold-15"/>
       <use xlink:href="#DejaVuSans-Bold-14" transform="translate(69.578125 0)"/>
       <use xlink:href="#DejaVuSans-Bold-1a" transform="translate(139.15625 0)"/>
      </g>
     </g>
    </g>
    <g id="text_19">
     <!-- Stars -->
     <g style="fill: #58a6ff" transform="translate(13.278125 121.9225) rotate(-90) scale(0.08 -0.08)">
      <defs>
       <path id="DejaVuSans-Bold-36" d="M 3834 4519 
L 3834 3531 
Q 3450 3703 3084 3790 
Q 2719 3878 2394 3878 
Q 1963 3878 1756 3759 
Q 1550 3641 1550 3391 
Q 1550 3203 1689 3098 
Q 1828 2994 2194 2919 
L 2706 2816 
Q 3484 2659 3812 2340 
Q 4141 2022 4141 1434 
Q 4141 663 3683 286 
Q 3225 -91 2284 -91 
Q 1841 -91 1394 -6 
Q 947 78 500 244 
L 500 1259 
Q 947 1022 1364 901 
Q 1781 781 2169 781 
Q 2563 781 2772 912 
Q 2981 1044 2981 1288 
Q 2981 1506 2839 1625 
Q 2697 1744 2272 1838 
L 1806 1941 
Q 1106 2091 782 2419 
Q 459 2747 459 3303 
Q 459 4000 909 4375 
Q 1359 4750 2203 4750 
Q 2588 4750 2994 4692 
Q 3400 4634 3834 4519 
z
" transform="scale(0.015625)"/>
       <path id="DejaVuSans-Bold-56" d="M 3272 3391 
L 3272 2541 
Q 2913 2691 2578 2766 
Q 2244 2841 1947 2841 
Q 1628 2841 1473 2761 
Q 1319 2681 1319 2516 
Q 1319 2381 1436 2309 
Q 1553 2238 1856 2203 
L 2053 2175 
Q 2913 2066 3209 1816 
Q 3506 1566 3506 1031 
Q 3506 472 3093 190 
Q 2681 -91 1863 -91 
Q 1516 -91 1145 -36 
Q 775 19 384 128 
L 384 978 
Q 719 816 1070 734 
Q 1422 653 1784 653 
Q 2113 653 2278 743 
Q 2444 834 2444 1013 
Q 2444 1163 2330 1236 
Q 2216 1309 1875 1350 
L 1678 1375 
Q 931 1469 631 1722 
Q 331 1975 331 2491 
Q 331 3047 712 3315 
Q 1094 3584 1881 3584 
Q 2191 3584 2531 3537 
Q 2872 3491 3272 3391 
z
" transform="scale(0.015625)"/>
      </defs>
      <use xlink:href="#DejaVuSans-Bold-36"/>
      <use xlink:href="#DejaVuSans-Bold-57" transform="translate(72.015625 0)"/>
      <use xlink:href="#DejaVuSans-Bold-44" transform="translate(119.8125 0)"/>
      <use xlink:href="#DejaVuSans-Bold-55" transform="translate(187.296875 0)"/>
      <use xlink:href="#DejaVuSans-Bold-56" transform="translate(236.609375 0)"/>
     </g>
    </g>
   </g>
   <g id="FillBetweenPolyCollection_1">
    <defs>
     <path id="m3f8d558485" d="M 53.70756 -33.201172 
L 53.70756 -33.934755 
L 57.332045 -34.668339 
L 57.980652 -35.401922 
L 58.104041 -36.135505 
L 58.353592 -36.869089 
L 58.381027 -37.602672 
L 59.232905 -38.336255 
L 62.69445 -39.069839 
L 66.635848 -39.803422 
L 67.207589 -40.537005 
L 67.334156 -41.270589 
L 67.399202 -42.004172 
L 67.678773 -42.737755 
L 67.70575 -43.471339 
L 67.963432 -44.204922 
L 69.036403 -44.938505 
L 69.931385 -45.672089 
L 71.011275 -46.405672 
L 71.621113 -47.139255 
L 85.969924 -47.872839 
L 90.611944 -48.606422 
L 95.282235 -49.340005 
L 100.541739 -50.073589 
L 100.933015 -50.807172 
L 105.041767 -51.540755 
L 105.166206 -52.274339 
L 112.888163 -53.007922 
L 118.067463 -53.741505 
L 133.241013 -54.475089 
L 151.223409 -55.208672 
L 151.333794 -55.942255 
L 152.129402 -56.675839 
L 152.73049 -57.409422 
L 153.005941 -58.143005 
L 153.251265 -58.876589 
L 153.37977 -59.610172 
L 155.448389 -60.343755 
L 155.639086 -61.077339 
L 156.213062 -61.810922 
L 156.261658 -62.544505 
L 156.473894 -63.278089 
L 156.51471 -64.011672 
L 157.491699 -64.745255 
L 157.744212 -65.478839 
L 157.843667 -66.212422 
L 158.584836 -66.946005 
L 158.880157 -67.679589 
L 159.356186 -68.413172 
L 160.471696 -69.146755 
L 161.039749 -69.880339 
L 161.223742 -70.613922 
L 161.397559 -71.347505 
L 161.569194 -72.081089 
L 162.15604 -72.814672 
L 164.642345 -73.548255 
L 165.572219 -74.281839 
L 166.530282 -75.015422 
L 166.605694 -75.749005 
L 167.740535 -76.482589 
L 170.426664 -77.216172 
L 171.487197 -77.949755 
L 174.316989 -78.683339 
L 175.518787 -79.416922 
L 177.331366 -80.150505 
L 183.892851 -80.884089 
L 184.221853 -81.617672 
L 194.10639 -82.351255 
L 194.494004 -83.084839 
L 203.840157 -83.818422 
L 222.116473 -84.552005 
L 227.58571 -85.285589 
L 230.878528 -86.019172 
L 231.828217 -86.752755 
L 238.041746 -87.486339 
L 241.06097 -88.219922 
L 241.12012 -88.953505 
L 243.072915 -89.687089 
L 243.840066 -90.420672 
L 252.877598 -91.154255 
L 253.411566 -91.887839 
L 253.617771 -92.621422 
L 253.634975 -93.355005 
L 254.207013 -94.088589 
L 254.765858 -94.822172 
L 256.751176 -95.555755 
L 260.144687 -96.289339 
L 262.215486 -97.022922 
L 267.56478 -97.756505 
L 268.119479 -98.490089 
L 268.407396 -99.223672 
L 268.502354 -99.957255 
L 279.427339 -100.690839 
L 281.176406 -101.424422 
L 282.745626 -102.158005 
L 283.548746 -102.891589 
L 283.921498 -103.625172 
L 287.71331 -104.358755 
L 289.14856 -105.092339 
L 289.267237 -105.825922 
L 289.96428 -106.559505 
L 290.787349 -107.293089 
L 290.791199 -108.026672 
L 290.955727 -108.760255 
L 291.003112 -109.493839 
L 291.003274 -110.227422 
L 291.220813 -110.961005 
L 293.158935 -111.694589 
L 293.545714 -112.428172 
L 293.555514 -113.161755 
L 294.564246 -113.895339 
L 294.62302 -114.628922 
L 295.204534 -115.362505 
L 296.629769 -116.096089 
L 297.646309 -116.829672 
L 299.332268 -117.563255 
L 300.029714 -118.296839 
L 300.543167 -119.030422 
L 303.802007 -119.764005 
L 304.679327 -120.497589 
L 304.974029 -121.231172 
L 308.452939 -121.964755 
L 309.477152 -122.698339 
L 309.892578 -123.431922 
L 316.226831 -124.165505 
L 317.095939 -124.899089 
L 317.567634 -125.632672 
L 319.053526 -126.366255 
L 319.608952 -127.099839 
L 324.260746 -127.833422 
L 326.580801 -128.567005 
L 336.206633 -129.300589 
L 341.561877 -130.034172 
L 344.450092 -130.767755 
L 362.971086 -131.501339 
L 367.812931 -132.234922 
L 375.192317 -132.968505 
L 375.280006 -133.702089 
L 377.137681 -134.435672 
L 384.460797 -135.169255 
L 388.025673 -135.902839 
L 390.807784 -136.636422 
L 391.224152 -137.370005 
L 391.863659 -138.103589 
L 395.863023 -138.837172 
L 400.773791 -139.570755 
L 401.408964 -140.304339 
L 402.835113 -141.037922 
L 407.732151 -141.771505 
L 414.452483 -142.505089 
L 424.496513 -143.238672 
L 425.838905 -143.972255 
L 426.660601 -144.705839 
L 433.128609 -145.439422 
L 438.169336 -146.173005 
L 443.589276 -146.906589 
L 466.21695 -147.640172 
L 466.778353 -148.373755 
L 470.43948 -149.107339 
L 476.222507 -149.840922 
L 476.372146 -150.574505 
L 476.646763 -151.308089 
L 477.106235 -152.041672 
L 477.596372 -152.775255 
L 477.619257 -153.508839 
L 479.564594 -154.242422 
L 486.415476 -154.976005 
L 489.358238 -155.709589 
L 489.905291 -156.443172 
L 491.38063 -157.176755 
L 492.965115 -157.910339 
L 501.327359 -158.643922 
L 509.107147 -159.377505 
L 513.436697 -160.111089 
L 515.10249 -160.844672 
L 516.292066 -161.578255 
L 517.080485 -162.311839 
L 517.420149 -163.045422 
L 521.367793 -163.779005 
L 525.761608 -164.512589 
L 527.176289 -165.246172 
L 528.317914 -165.979755 
L 531.518385 -166.713339 
L 532.36687 -167.446922 
L 533.116197 -168.180505 
L 534.317404 -168.914089 
L 540.018422 -169.647672 
L 540.25392 -170.381255 
L 541.130163 -171.114839 
L 544.172271 -171.848422 
L 547.710682 -172.582005 
L 555.969003 -173.315589 
L 573.731248 -174.049172 
L 575.223952 -174.782755 
L 580.270871 -175.516339 
L 581.489981 -176.249922 
L 584.611217 -176.983505 
L 585.219385 -177.717089 
L 588.972105 -178.450672 
L 591.21804 -179.184255 
L 592.883861 -179.917839 
L 600.766656 -180.651422 
L 606.142389 -181.385005 
L 613.379566 -182.118589 
L 613.780372 -182.852172 
L 618.703336 -183.585755 
L 623.3757 -184.319339 
L 625.341687 -185.052922 
L 633.115417 -185.786505 
L 640.738861 -186.520089 
L 652.421061 -187.253672 
L 658.223877 -187.987255 
L 661.554171 -188.720839 
L 668.918184 -189.454422 
L 669.295539 -190.188005 
L 673.356396 -190.921589 
L 674.748272 -191.655172 
L 682.115811 -192.388755 
L 698.515252 -192.388755 
L 698.515252 -33.201172 
L 698.515252 -33.201172 
L 682.115811 -33.201172 
L 674.748272 -33.201172 
L 673.356396 -33.201172 
L 669.295539 -33.201172 
L 668.918184 -33.201172 
L 661.554171 -33.201172 
L 658.223877 -33.201172 
L 652.421061 -33.201172 
L 640.738861 -33.201172 
L 633.115417 -33.201172 
L 625.341687 -33.201172 
L 623.3757 -33.201172 
L 618.703336 -33.201172 
L 613.780372 -33.201172 
L 613.379566 -33.201172 
L 606.142389 -33.201172 
L 600.766656 -33.201172 
L 592.883861 -33.201172 
L 591.21804 -33.201172 
L 588.972105 -33.201172 
L 585.219385 -33.201172 
L 584.611217 -33.201172 
L 581.489981 -33.201172 
L 580.270871 -33.201172 
L 575.223952 -33.201172 
L 573.731248 -33.201172 
L 555.969003 -33.201172 
L 547.710682 -33.201172 
L 544.172271 -33.201172 
L 541.130163 -33.201172 
L 540.25392 -33.201172 
L 540.018422 -33.201172 
L 534.317404 -33.201172 
L 533.116197 -33.201172 
L 532.36687 -33.201172 
L 531.518385 -33.201172 
L 528.317914 -33.201172 
L 527.176289 -33.201172 
L 525.761608 -33.201172 
L 521.367793 -33.201172 
L 517.420149 -33.201172 
L 517.080485 -33.201172 
L 516.292066 -33.201172 
L 515.10249 -33.201172 
L 513.436697 -33.201172 
L 509.107147 -33.201172 
L 501.327359 -33.201172 
L 492.965115 -33.201172 
L 491.38063 -33.201172 
L 489.905291 -33.201172 
L 489.358238 -33.201172 
L 486.415476 -33.201172 
L 479.564594 -33.201172 
L 477.619257 -33.201172 
L 477.596372 -33.201172 
L 477.106235 -33.201172 
L 476.646763 -33.201172 
L 476.372146 -33.201172 
L 476.222507 -33.201172 
L 470.43948 -33.201172 
L 466.778353 -33.201172 
L 466.21695 -33.201172 
L 443.589276 -33.201172 
L 438.169336 -33.201172 
L 433.128609 -33.201172 
L 426.660601 -33.201172 
L 425.838905 -33.201172 
L 424.496513 -33.201172 
L 414.452483 -33.201172 
L 407.732151 -33.201172 
L 402.835113 -33.201172 
L 401.408964 -33.201172 
L 400.773791 -33.201172 
L 395.863023 -33.201172 
L 391.863659 -33.201172 
L 391.224152 -33.201172 
L 390.807784 -33.201172 
L 388.025673 -33.201172 
L 384.460797 -33.201172 
L 377.137681 -33.201172 
L 375.280006 -33.201172 
L 375.192317 -33.201172 
L 367.812931 -33.201172 
L 362.971086 -33.201172 
L 344.450092 -33.201172 
L 341.561877 -33.201172 
L 336.206633 -33.201172 
L 326.580801 -33.201172 
L 324.260746 -33.201172 
L 319.608952 -33.201172 
L 319.053526 -33.201172 
L 317.567634 -33.201172 
L 317.095939 -33.201172 
L 316.226831 -33.201172 
L 309.892578 -33.201172 
L 309.477152 -33.201172 
L 308.452939 -33.201172 
L 304.974029 -33.201172 
L 304.679327 -33.201172 
L 303.802007 -33.201172 
L 300.543167 -33.201172 
L 300.029714 -33.201172 
L 299.332268 -33.201172 
L 297.646309 -33.201172 
L 296.629769 -33.201172 
L 295.204534 -33.201172 
L 294.62302 -33.201172 
L 294.564246 -33.201172 
L 293.555514 -33.201172 
L 293.545714 -33.201172 
L 293.158935 -33.201172 
L 291.220813 -33.201172 
L 291.003274 -33.201172 
L 291.003112 -33.201172 
L 290.955727 -33.201172 
L 290.791199 -33.201172 
L 290.787349 -33.201172 
L 289.96428 -33.201172 
L 289.267237 -33.201172 
L 289.14856 -33.201172 
L 287.71331 -33.201172 
L 283.921498 -33.201172 
L 283.548746 -33.201172 
L 282.745626 -33.201172 
L 281.176406 -33.201172 
L 279.427339 -33.201172 
L 268.502354 -33.201172 
L 268.407396 -33.201172 
L 268.119479 -33.201172 
L 267.56478 -33.201172 
L 262.215486 -33.201172 
L 260.144687 -33.201172 
L 256.751176 -33.201172 
L 254.765858 -33.201172 
L 254.207013 -33.201172 
L 253.634975 -33.201172 
L 253.617771 -33.201172 
L 253.411566 -33.201172 
L 252.877598 -33.201172 
L 243.840066 -33.201172 
L 243.072915 -33.201172 
L 241.12012 -33.201172 
L 241.06097 -33.201172 
L 238.041746 -33.201172 
L 231.828217 -33.201172 
L 230.878528 -33.201172 
L 227.58571 -33.201172 
L 222.116473 -33.201172 
L 203.840157 -33.201172 
L 194.494004 -33.201172 
L 194.10639 -33.201172 
L 184.221853 -33.201172 
L 183.892851 -33.201172 
L 177.331366 -33.201172 
L 175.518787 -33.201172 
L 174.316989 -33.201172 
L 171.487197 -33.201172 
L 170.426664 -33.201172 
L 167.740535 -33.201172 
L 166.605694 -33.201172 
L 166.530282 -33.201172 
L 165.572219 -33.201172 
L 164.642345 -33.201172 
L 162.15604 -33.201172 
L 161.569194 -33.201172 
L 161.397559 -33.201172 
L 161.223742 -33.201172 
L 161.039749 -33.201172 
L 160.471696 -33.201172 
L 159.356186 -33.201172 
L 158.880157 -33.201172 
L 158.584836 -33.201172 
L 157.843667 -33.201172 
L 157.744212 -33.201172 
L 157.491699 -33.201172 
L 156.51471 -33.201172 
L 156.473894 -33.201172 
L 156.261658 -33.201172 
L 156.213062 -33.201172 
L 155.639086 -33.201172 
L 155.448389 -33.201172 
L 153.37977 -33.201172 
L 153.251265 -33.201172 
L 153.005941 -33.201172 
L 152.73049 -33.201172 
L 152.129402 -33.201172 
L 151.333794 -33.201172 
L 151.223409 -33.201172 
L 133.241013 -33.201172 
L 118.067463 -33.201172 
L 112.888163 -33.201172 
L 105.166206 -33.201172 
L 105.041767 -33.201172 
L 100.933015 -33.201172 
L 100.541739 -33.201172 
L 95.282235 -33.201172 
L 90.611944 -33.201172 
L 85.969924 -33.201172 
L 71.621113 -33.201172 
L 71.011275 -33.201172 
L 69.931385 -33.201172 
L 69.036403 -33.201172 
L 67.963432 -33.201172 
L 67.70575 -33.201172 
L 67.678773 -33.201172 
L 67.399202 -33.201172 
L 67.334156 -33.201172 
L 67.207589 -33.201172 
L 66.635848 -33.201172 
L 62.69445 -33.201172 
L 59.232905 -33.201172 
L 58.381027 -33.201172 
L 58.353592 -33.201172 
L 58.104041 -33.201172 
L 57.980652 -33.201172 
L 57.332045 -33.201172 
L 53.70756 -33.201172 
z
" style="stroke: #1f6feb; stroke-opacity: 0.15"/>
    </defs>
    <g clip-path="url(#p9d52fed967)">
     <use xlink:href="#m3f8d558485" x="0" y="228.557734" style="fill: #1f6feb; fill-opacity: 0.15; stroke: #1f6feb; stroke-opacity: 0.15"/>
    </g>
   </g>
   <g id="patch_3">
    <path d="M 40.811406 195.356563 
L 40.811406 24.798438 
" style="fill: none; stroke: #283d58; stroke-width: 0.8; stroke-linejoin: miter; stroke-linecap: square"/>
   </g>
   <g id="patch_4">
    <path d="M 711.411406 195.356563 
L 711.411406 24.798438 
" style="fill: none; stroke: #283d58; stroke-width: 0.8; stroke-linejoin: miter; stroke-linecap: square"/>
   </g>
   <g id="patch_5">
    <path d="M 40.811406 195.356563 
L 711.411406 195.356563 
" style="fill: none; stroke: #283d58; stroke-width: 0.8; stroke-linejoin: miter; stroke-linecap: square"/>
   </g>
   <g id="patch_6">
    <path d="M 40.811406 24.798438 
L 711.411406 24.798438 
" style="fill: none; stroke: #283d58; stroke-width: 0.8; stroke-linejoin: miter; stroke-linecap: square"/>
   </g>
   <g id="line2d_35">
    <path d="M 53.70756 194.622979 
L 57.332045 193.889396 
L 57.980652 193.155813 
L 58.104041 192.422229 
L 58.353592 191.688646 
L 58.381027 190.955063 
L 59.232905 190.221479 
L 66.635848 188.754313 
L 67.207589 188.020729 
L 67.70575 185.086396 
L 67.963432 184.352813 
L 71.011275 182.152063 
L 71.621113 181.418479 
L 85.969924 180.684896 
L 100.541739 178.484146 
L 100.933015 177.750563 
L 105.041767 177.016979 
L 105.166206 176.283396 
L 112.888163 175.549813 
L 118.067463 174.816229 
L 133.241013 174.082646 
L 151.223409 173.349063 
L 151.333794 172.615479 
L 152.129402 171.881896 
L 152.73049 171.148313 
L 153.251265 169.681146 
L 153.37977 168.947563 
L 155.448389 168.213979 
L 155.639086 167.480396 
L 156.213062 166.746813 
L 156.261658 166.013229 
L 156.473894 165.279646 
L 156.51471 164.546063 
L 157.491699 163.812479 
L 157.744212 163.078896 
L 157.843667 162.345313 
L 158.584836 161.611729 
L 158.880157 160.878146 
L 159.356186 160.144563 
L 160.471696 159.410979 
L 161.039749 158.677396 
L 161.569194 156.476646 
L 162.15604 155.743063 
L 164.642345 155.009479 
L 166.530282 153.542313 
L 166.605694 152.808729 
L 167.740535 152.075146 
L 170.426664 151.341563 
L 171.487197 150.607979 
L 174.316989 149.874396 
L 175.518787 149.140813 
L 177.331366 148.407229 
L 183.892851 147.673646 
L 184.221853 146.940063 
L 194.10639 146.206479 
L 194.494004 145.472896 
L 203.840157 144.739313 
L 222.116473 144.005729 
L 227.58571 143.272146 
L 230.878528 142.538563 
L 231.828217 141.804979 
L 238.041746 141.071396 
L 241.06097 140.337813 
L 241.12012 139.604229 
L 243.072915 138.870646 
L 243.840066 138.137063 
L 252.877598 137.403479 
L 253.411566 136.669896 
L 253.617771 135.936313 
L 253.634975 135.202729 
L 254.765858 133.735563 
L 256.751176 133.001979 
L 260.144687 132.268396 
L 262.215486 131.534813 
L 267.56478 130.801229 
L 268.119479 130.067646 
L 268.407396 129.334063 
L 268.502354 128.600479 
L 279.427339 127.866896 
L 282.745626 126.399729 
L 283.548746 125.666146 
L 283.921498 124.932563 
L 287.71331 124.198979 
L 289.14856 123.465396 
L 289.267237 122.731813 
L 290.787349 121.264646 
L 290.791199 120.531063 
L 290.955727 119.797479 
L 291.003274 118.330313 
L 291.220813 117.596729 
L 293.158935 116.863146 
L 293.545714 116.129563 
L 293.555514 115.395979 
L 294.564246 114.662396 
L 294.62302 113.928813 
L 295.204534 113.195229 
L 296.629769 112.461646 
L 297.646309 111.728063 
L 299.332268 110.994479 
L 300.029714 110.260896 
L 300.543167 109.527313 
L 303.802007 108.793729 
L 304.679327 108.060146 
L 304.974029 107.326563 
L 308.452939 106.592979 
L 309.477152 105.859396 
L 309.892578 105.125813 
L 316.226831 104.392229 
L 317.095939 103.658646 
L 317.567634 102.925063 
L 319.053526 102.191479 
L 319.608952 101.457896 
L 324.260746 100.724313 
L 326.580801 99.990729 
L 336.206633 99.257146 
L 341.561877 98.523563 
L 344.450092 97.789979 
L 362.971086 97.056396 
L 367.812931 96.322813 
L 375.192317 95.589229 
L 375.280006 94.855646 
L 377.137681 94.122063 
L 384.460797 93.388479 
L 388.025673 92.654896 
L 390.807784 91.921313 
L 391.224152 91.187729 
L 391.863659 90.454146 
L 395.863023 89.720563 
L 400.773791 88.986979 
L 401.408964 88.253396 
L 402.835113 87.519813 
L 407.732151 86.786229 
L 414.452483 86.052646 
L 424.496513 85.319063 
L 425.838905 84.585479 
L 426.660601 83.851896 
L 433.128609 83.118313 
L 443.589276 81.651146 
L 466.21695 80.917563 
L 466.778353 80.183979 
L 470.43948 79.450396 
L 476.222507 78.716813 
L 476.372146 77.983229 
L 476.646763 77.249646 
L 477.596372 75.782479 
L 477.619257 75.048896 
L 479.564594 74.315313 
L 486.415476 73.581729 
L 489.358238 72.848146 
L 489.905291 72.114563 
L 492.965115 70.647396 
L 509.107147 69.180229 
L 513.436697 68.446646 
L 515.10249 67.713063 
L 516.292066 66.979479 
L 517.080485 66.245896 
L 517.420149 65.512313 
L 525.761608 64.045146 
L 527.176289 63.311563 
L 528.317914 62.577979 
L 531.518385 61.844396 
L 533.116197 60.377229 
L 534.317404 59.643646 
L 540.018422 58.910063 
L 540.25392 58.176479 
L 541.130163 57.442896 
L 544.172271 56.709313 
L 547.710682 55.975729 
L 555.969003 55.242146 
L 573.731248 54.508563 
L 575.223952 53.774979 
L 580.270871 53.041396 
L 581.489981 52.307813 
L 584.611217 51.574229 
L 585.219385 50.840646 
L 588.972105 50.107063 
L 591.21804 49.373479 
L 592.883861 48.639896 
L 600.766656 47.906313 
L 606.142389 47.172729 
L 613.379566 46.439146 
L 613.780372 45.705563 
L 623.3757 44.238396 
L 625.341687 43.504813 
L 640.738861 42.037646 
L 652.421061 41.304063 
L 658.223877 40.570479 
L 661.554171 39.836896 
L 668.918184 39.103313 
L 669.295539 38.369729 
L 673.356396 37.636146 
L 674.748272 36.902563 
L 682.115811 36.168979 
L 698.515252 36.168979 
L 698.515252 36.168979 
" clip-path="url(#p9d52fed967)" style="fill: none; stroke: #1f6feb; stroke-width: 2.5; stroke-linecap: square"/>
   </g>
   <g id="text_20">
    <!-- FirstEverTech / Universal-Intel-Chipset-Updater · Stars History -->
    <g style="fill: #58a6ff" transform="translate(222.398125 14.798438) scale(0.1 -0.1)">
     <defs>
      <path id="DejaVuSans-29" d="M 628 4666 
L 3309 4666 
L 3309 4134 
L 1259 4134 
L 1259 2759 
L 3109 2759 
L 3109 2228 
L 1259 2228 
L 1259 0 
L 628 0 
L 628 4666 
z
" transform="scale(0.015625)"/>
      <path id="DejaVuSans-4c" d="M 603 3500 
L 1178 3500 
L 1178 0 
L 603 0 
L 603 3500 
z
M 603 4863 
L 1178 4863 
L 1178 4134 
L 603 4134 
L 603 4863 
z
" transform="scale(0.015625)"/>
      <path id="DejaVuSans-55" d="M 2631 2963 
Q 2534 3019 2420 3045 
Q 2306 3072 2169 3072 
Q 1681 3072 1420 2755 
Q 1159 2438 1159 1844 
L 1159 0 
L 581 0 
L 581 3500 
L 1159 3500 
L 1159 2956 
Q 1341 3275 1631 3429 
Q 1922 3584 2338 3584 
Q 2397 3584 2469 3576 
Q 2541 3569 2628 3553 
L 2631 2963 
z
" transform="scale(0.015625)"/>
      <path id="DejaVuSans-56" d="M 2834 3397 
L 2834 2853 
Q 2591 2978 2328 3040 
Q 2066 3103 1784 3103 
Q 1356 3103 1142 2972 
Q 928 2841 928 2578 
Q 928 2378 1081 2264 
Q 1234 2150 1697 2047 
L 1894 2003 
Q 2506 1872 2764 1633 
Q 3022 1394 3022 966 
Q 3022 478 2636 193 
Q 2250 -91 1575 -91 
Q 1294 -91 989 -36 
Q 684 19 347 128 
L 347 722 
Q 666 556 975 473 
Q 1284 391 1588 391 
Q 1994 391 2212 530 
Q 2431 669 2431 922 
Q 2431 1156 2273 1281 
Q 2116 1406 1581 1522 
L 1381 1569 
Q 847 1681 609 1914 
Q 372 2147 372 2553 
Q 372 3047 722 3315 
Q 1072 3584 1716 3584 
Q 2034 3584 2315 3537 
Q 2597 3491 2834 3397 
z
" transform="scale(0.015625)"/>
      <path id="DejaVuSans-57" d="M 1172 4494 
L 1172 3500 
L 2356 3500 
L 2356 3053 
L 1172 3053 
L 1172 1153 
Q 1172 725 1289 603 
Q 1406 481 1766 481 
L 2356 481 
L 2356 0 
L 1766 0 
Q 1100 0 847 248 
Q 594 497 594 1153 
L 594 3053 
L 172 3053 
L 172 3500 
L 594 3500 
L 594 4494 
L 1172 4494 
z
" transform="scale(0.015625)"/>
      <path id="DejaVuSans-28" d="M 628 4666 
L 3578 4666 
L 3578 4134 
L 1259 4134 
L 1259 2753 
L 3481 2753 
L 3481 2222 
L 1259 2222 
L 1259 531 
L 3634 531 
L 3634 0 
L 628 0 
L 628 4666 
z
" transform="scale(0.015625)"/>
      <path id="DejaVuSans-59" d="M 191 3500 
L 800 3500 
L 1894 563 
L 2988 3500 
L 3597 3500 
L 2284 0 
L 1503 0 
L 191 3500 
z
" transform="scale(0.015625)"/>
      <path id="DejaVuSans-48" d="M 3597 1894 
L 3597 1613 
L 953 1613 
Q 991 1019 1311 708 
Q 1631 397 2203 397 
Q 2534 397 2845 478 
Q 3156 559 3463 722 
L 3463 178 
Q 3153 47 2828 -22 
Q 2503 -91 2169 -91 
Q 1331 -91 842 396 
Q 353 884 353 1716 
Q 353 2575 817 3079 
Q 1281 3584 2069 3584 
Q 2775 3584 3186 3129 
Q 3597 2675 3597 1894 
z
M 3022 2063 
Q 3016 2534 2758 2815 
Q 2500 3097 2075 3097 
Q 1594 3097 1305 2825 
Q 1016 2553 972 2059 
L 3022 2063 
z
" transform="scale(0.015625)"/>
      <path id="DejaVuSans-37" d="M -19 4666 
L 3928 4666 
L 3928 4134 
L 2272 4134 
L 2272 0 
L 1638 0 
L 1638 4134 
L -19 4134 
L -19 4666 
z
" transform="scale(0.015625)"/>
      <path id="DejaVuSans-46" d="M 3122 3366 
L 3122 2828 
Q 2878 2963 2633 3030 
Q 2388 3097 2138 3097 
Q 1578 3097 1268 2742 
Q 959 2388 959 1747 
Q 959 1106 1268 751 
Q 1578 397 2138 397 
Q 2388 397 2633 464 
Q 2878 531 3122 666 
L 3122 134 
Q 2881 22 2623 -34 
Q 2366 -91 2075 -91 
Q 1284 -91 818 406 
Q 353 903 353 1747 
Q 353 2603 823 3093 
Q 1294 3584 2113 3584 
Q 2378 3584 2631 3529 
Q 2884 3475 3122 3366 
z
" transform="scale(0.015625)"/>
      <path id="DejaVuSans-4b" d="M 3513 2113 
L 3513 0 
L 2938 0 
L 2938 2094 
Q 2938 2591 2744 2837 
Q 2550 3084 2163 3084 
Q 1697 3084 1428 2787 
Q 1159 2491 1159 1978 
L 1159 0 
L 581 0 
L 581 4863 
L 1159 4863 
L 1159 2956 
Q 1366 3272 1645 3428 
Q 1925 3584 2291 3584 
Q 2894 3584 3203 3211 
Q 3513 2838 3513 2113 
z
" transform="scale(0.015625)"/>
      <path id="DejaVuSans-3" transform="scale(0.015625)"/>
      <path id="DejaVuSans-12" d="M 1625 4666 
L 2156 4666 
L 531 -594 
L 0 -594 
L 1625 4666 
z
" transform="scale(0.015625)"/>
      <path id="DejaVuSans-38" d="M 556 4666 
L 1191 4666 
L 1191 1831 
Q 1191 1081 1462 751 
Q 1734 422 2344 422 
Q 2950 422 3222 751 
Q 3494 1081 3494 1831 
L 3494 4666 
L 4128 4666 
L 4128 1753 
Q 4128 841 3676 375 
Q 3225 -91 2344 -91 
Q 1459 -91 1007 375 
Q 556 841 556 1753 
L 556 4666 
z
" transform="scale(0.015625)"/>
      <path id="DejaVuSans-51" d="M 3513 2113 
L 3513 0 
L 2938 0 
L 2938 2094 
Q 2938 2591 2744 2837 
Q 2550 3084 2163 3084 
Q 1697 3084 1428 2787 
Q 1159 2491 1159 1978 
L 1159 0 
L 581 0 
L 581 3500 
L 1159 3500 
L 1159 2956 
Q 1366 3272 1645 3428 
Q 1925 3584 2291 3584 
Q 2894 3584 3203 3211 
Q 3513 2838 3513 2113 
z
" transform="scale(0.015625)"/>
      <path id="DejaVuSans-44" d="M 2194 1759 
Q 1497 1759 1228 1600 
Q 959 1441 959 1056 
Q 959 750 1161 570 
Q 1363 391 1709 391 
Q 2188 391 2477 730 
Q 2766 1069 2766 1631 
L 2766 1759 
L 2194 1759 
z
M 3341 1997 
L 3341 0 
L 2766 0 
L 2766 531 
Q 2569 213 2275 61 
Q 1981 -91 1556 -91 
Q 1019 -91 701 211 
Q 384 513 384 1019 
Q 384 1609 779 1909 
Q 1175 2209 1959 2209 
L 2766 2209 
L 2766 2266 
Q 2766 2663 2505 2880 
Q 2244 3097 1772 3097 
Q 1472 3097 1187 3025 
Q 903 2953 641 2809 
L 641 3341 
Q 956 3463 1253 3523 
Q 1550 3584 1831 3584 
Q 2591 3584 2966 3190 
Q 3341 2797 3341 1997 
z
" transform="scale(0.015625)"/>
      <path id="DejaVuSans-4f" d="M 603 4863 
L 1178 4863 
L 1178 0 
L 603 0 
L 603 4863 
z
" transform="scale(0.015625)"/>
      <path id="DejaVuSans-10" d="M 313 2009 
L 1997 2009 
L 1997 1497 
L 313 1497 
L 313 2009 
z
" transform="scale(0.015625)"/>
      <path id="DejaVuSans-2c" d="M 628 4666 
L 1259 4666 
L 1259 0 
L 628 0 
L 628 4666 
z
" transform="scale(0.015625)"/>
      <path id="DejaVuSans-26" d="M 4122 4306 
L 4122 3641 
Q 3803 3938 3442 4084 
Q 3081 4231 2675 4231 
Q 1875 4231 1450 3742 
Q 1025 3253 1025 2328 
Q 1025 1406 1450 917 
Q 1875 428 2675 428 
Q 3081 428 3442 575 
Q 3803 722 4122 1019 
L 4122 359 
Q 3791 134 3420 21 
Q 3050 -91 2638 -91 
Q 1578 -91 968 557 
Q 359 1206 359 2328 
Q 359 3453 968 4101 
Q 1578 4750 2638 4750 
Q 3056 4750 3426 4639 
Q 3797 4528 4122 4306 
z
" transform="scale(0.015625)"/>
      <path id="DejaVuSans-53" d="M 1159 525 
L 1159 -1331 
L 581 -1331 
L 581 3500 
L 1159 3500 
L 1159 2969 
Q 1341 3281 1617 3432 
Q 1894 3584 2278 3584 
Q 2916 3584 3314 3078 
Q 3713 2572 3713 1747 
Q 3713 922 3314 415 
Q 2916 -91 2278 -91 
Q 1894 -91 1617 61 
Q 1341 213 1159 525 
z
M 3116 1747 
Q 3116 2381 2855 2742 
Q 2594 3103 2138 3103 
Q 1681 3103 1420 2742 
Q 1159 2381 1159 1747 
Q 1159 1113 1420 752 
Q 1681 391 2138 391 
Q 2594 391 2855 752 
Q 3116 1113 3116 1747 
z
" transform="scale(0.015625)"/>
      <path id="DejaVuSans-47" d="M 2906 2969 
L 2906 4863 
L 3481 4863 
L 3481 0 
L 2906 0 
L 2906 525 
Q 2725 213 2448 61 
Q 2172 -91 1784 -91 
Q 1150 -91 751 415 
Q 353 922 353 1747 
Q 353 2572 751 3078 
Q 1150 3584 1784 3584 
Q 2172 3584 2448 3432 
Q 2725 3281 2906 2969 
z
M 947 1747 
Q 947 1113 1208 752 
Q 1469 391 1925 391 
Q 2381 391 2643 752 
Q 2906 1113 2906 1747 
Q 2906 2381 2643 2742 
Q 2381 3103 1925 3103 
Q 1469 3103 1208 2742 
Q 947 2381 947 1747 
z
" transform="scale(0.015625)"/>
      <path id="DejaVuSans-79" d="M 684 2619 
L 1344 2619 
L 1344 1825 
L 684 1825 
L 684 2619 
z
" transform="scale(0.015625)"/>
      <path id="DejaVuSans-36" d="M 3425 4513 
L 3425 3897 
Q 3066 4069 2747 4153 
Q 2428 4238 2131 4238 
Q 1616 4238 1336 4038 
Q 1056 3838 1056 3469 
Q 1056 3159 1242 3001 
Q 1428 2844 1947 2747 
L 2328 2669 
Q 3034 2534 3370 2195 
Q 3706 1856 3706 1288 
Q 3706 609 3251 259 
Q 2797 -91 1919 -91 
Q 1588 -91 1214 -16 
Q 841 59 441 206 
L 441 856 
Q 825 641 1194 531 
Q 1563 422 1919 422 
Q 2459 422 2753 634 
Q 3047 847 3047 1241 
Q 3047 1584 2836 1778 
Q 2625 1972 2144 2069 
L 1759 2144 
Q 1053 2284 737 2584 
Q 422 2884 422 3419 
Q 422 4038 858 4394 
Q 1294 4750 2059 4750 
Q 2388 4750 2728 4690 
Q 3069 4631 3425 4513 
z
" transform="scale(0.015625)"/>
      <path id="DejaVuSans-2b" d="M 628 4666 
L 1259 4666 
L 1259 2753 
L 3553 2753 
L 3553 4666 
L 4184 4666 
L 4184 0 
L 3553 0 
L 3553 2222 
L 1259 2222 
L 1259 0 
L 628 0 
L 628 4666 
z
" transform="scale(0.015625)"/>
      <path id="DejaVuSans-52" d="M 1959 3097 
Q 1497 3097 1228 2736 
Q 959 2375 959 1747 
Q 959 1119 1226 758 
Q 1494 397 1959 397 
Q 2419 397 2687 759 
Q 2956 1122 2956 1747 
Q 2956 2369 2687 2733 
Q 2419 3097 1959 3097 
z
M 1959 3584 
Q 2709 3584 3137 3096 
Q 3566 2609 3566 1747 
Q 3566 888 3137 398 
Q 2709 -91 1959 -91 
Q 1206 -91 779 398 
Q 353 888 353 1747 
Q 353 2609 779 3096 
Q 1206 3584 1959 3584 
z
" transform="scale(0.015625)"/>
      <path id="DejaVuSans-5c" d="M 2059 -325 
Q 1816 -950 1584 -1140 
Q 1353 -1331 966 -1331 
L 506 -1331 
L 506 -850 
L 844 -850 
Q 1081 -850 1212 -737 
Q 1344 -625 1503 -206 
L 1606 56 
L 191 3500 
L 800 3500 
L 1894 763 
L 2988 3500 
L 3597 3500 
L 2059 -325 
z
" transform="scale(0.015625)"/>
     </defs>
     <use xlink:href="#DejaVuSans-29"/>
     <use xlink:href="#DejaVuSans-4c" transform="translate(50.234375 0)"/>
     <use xlink:href="#DejaVuSans-55" transform="translate(78.015625 0)"/>
     <use xlink:href="#DejaVuSans-56" transform="translate(119.125 0)"/>
     <use xlink:href="#DejaVuSans-57" transform="translate(171.21875 0)"/>
     <use xlink:href="#DejaVuSans-28" transform="translate(210.421875 0)"/>
     <use xlink:href="#DejaVuSans-59" transform="translate(273.609375 0)"/>
     <use xlink:href="#DejaVuSans-48" transform="translate(332.796875 0)"/>
     <use xlink:href="#DejaVuSans-55" transform="translate(394.328125 0)"/>
     <use xlink:href="#DejaVuSans-37" transform="translate(435.4375 0)"/>
     <use xlink:href="#DejaVuSans-48" transform="translate(479.53125 0)"/>
     <use xlink:href="#DejaVuSans-46" transform="translate(541.0625 0)"/>
     <use xlink:href="#DejaVuSans-4b" transform="translate(596.046875 0)"/>
     <use xlink:href="#DejaVuSans-3" transform="translate(659.421875 0)"/>
     <use xlink:href="#DejaVuSans-12" transform="translate(691.203125 0)"/>
     <use xlink:href="#DejaVuSans-3" transform="translate(724.890625 0)"/>
     <use xlink:href="#DejaVuSans-38" transform="translate(756.671875 0)"/>
     <use xlink:href="#DejaVuSans-51" transform="translate(829.859375 0)"/>
     <use xlink:href="#DejaVuSans-4c" transform="translate(893.234375 0)"/>
     <use xlink:href="#DejaVuSans-59" transform="translate(921.015625 0)"/>
     <use xlink:href="#DejaVuSans-48" transform="translate(980.203125 0)"/>
     <use xlink:href="#DejaVuSans-55" transform="translate(1041.734375 0)"/>
     <use xlink:href="#DejaVuSans-56" transform="translate(1082.84375 0)"/>
     <use xlink:href="#DejaVuSans-44" transform="translate(1134.9375 0)"/>
     <use xlink:href="#DejaVuSans-4f" transform="translate(1196.21875 0)"/>
     <use xlink:href="#DejaVuSans-10" transform="translate(1224 0)"/>
     <use xlink:href="#DejaVuSans-2c" transform="translate(1260.078125 0)"/>
     <use xlink:href="#DejaVuSans-51" transform="translate(1289.578125 0)"/>
     <use xlink:href="#DejaVuSans-57" transform="translate(1352.953125 0)"/>
     <use xlink:href="#DejaVuSans-48" transform="translate(1392.15625 0)"/>
     <use xlink:href="#DejaVuSans-4f" transform="translate(1453.6875 0)"/>
     <use xlink:href="#DejaVuSans-10" transform="translate(1481.46875 0)"/>
     <use xlink:href="#DejaVuSans-26" transform="translate(1517.546875 0)"/>
     <use xlink:href="#DejaVuSans-4b" transform="translate(1587.375 0)"/>
     <use xlink:href="#DejaVuSans-4c" transform="translate(1650.75 0)"/>
     <use xlink:href="#DejaVuSans-53" transform="translate(1678.53125 0)"/>
     <use xlink:href="#DejaVuSans-56" transform="translate(1742.015625 0)"/>
     <use xlink:href="#DejaVuSans-48" transform="translate(1794.109375 0)"/>
     <use xlink:href="#DejaVuSans-57" transform="translate(1855.640625 0)"/>
     <use xlink:href="#DejaVuSans-10" transform="translate(1894.84375 0)"/>
     <use xlink:href="#DejaVuSans-38" transform="translate(1930.921875 0)"/>
     <use xlink:href="#DejaVuSans-53" transform="translate(2004.109375 0)"/>
     <use xlink:href="#DejaVuSans-47" transform="translate(2067.59375 0)"/>
     <use xlink:href="#DejaVuSans-44" transform="translate(2131.078125 0)"/>
     <use xlink:href="#DejaVuSans-57" transform="translate(2192.359375 0)"/>
     <use xlink:href="#DejaVuSans-48" transform="translate(2231.5625 0)"/>
     <use xlink:href="#DejaVuSans-55" transform="translate(2293.09375 0)"/>
     <use xlink:href="#DejaVuSans-3" transform="translate(2334.203125 0)"/>
     <use xlink:href="#DejaVuSans-79" transform="translate(2365.984375 0)"/>
     <use xlink:href="#DejaVuSans-3" transform="translate(2397.765625 0)"/>
     <use xlink:href="#DejaVuSans-36" transform="translate(2429.546875 0)"/>
     <use xlink:href="#DejaVuSans-57" transform="translate(2493.03125 0)"/>
     <use xlink:href="#DejaVuSans-44" transform="translate(2532.234375 0)"/>
     <use xlink:href="#DejaVuSans-55" transform="translate(2593.515625 0)"/>
     <use xlink:href="#DejaVuSans-56" transform="translate(2634.625 0)"/>
     <use xlink:href="#DejaVuSans-3" transform="translate(2686.71875 0)"/>
     <use xlink:href="#DejaVuSans-2b" transform="translate(2718.5 0)"/>
     <use xlink:href="#DejaVuSans-4c" transform="translate(2793.703125 0)"/>
     <use xlink:href="#DejaVuSans-56" transform="translate(2821.484375 0)"/>
     <use xlink:href="#DejaVuSans-57" transform="translate(2873.578125 0)"/>
     <use xlink:href="#DejaVuSans-52" transform="translate(2912.78125 0)"/>
     <use xlink:href="#DejaVuSans-55" transform="translate(2973.96875 0)"/>
     <use xlink:href="#DejaVuSans-5c" transform="translate(3015.078125 0)"/>
    </g>
   </g>
   <g id="PathCollection_1">
    <defs>
     <path id="mb6a8f45567" d="M 0 2.738613 
C 0.726289 2.738613 1.422928 2.450055 1.936492 1.936492 
C 2.450055 1.422928 2.738613 0.726289 2.738613 0 
C 2.738613 -0.726289 2.450055 -1.422928 1.936492 -1.936492 
C 1.422928 -2.450055 0.726289 -2.738613 0 -2.738613 
C -0.726289 -2.738613 -1.422928 -2.450055 -1.936492 -1.936492 
C -2.450055 -1.422928 -2.738613 -0.726289 -2.738613 0 
C -2.738613 0.726289 -2.450055 1.422928 -1.936492 1.936492 
C -1.422928 2.450055 -0.726289 2.738613 0 2.738613 
z
"/>
    </defs>
    <g clip-path="url(#p9d52fed967)">
     <use xlink:href="#mb6a8f45567" x="53.70756" y="194.622979" style="fill: #58a6ff"/>
     <use xlink:href="#mb6a8f45567" x="75.20115" y="181.23545" style="fill: #58a6ff"/>
     <use xlink:href="#mb6a8f45567" x="96.69474" y="179.020716" style="fill: #58a6ff"/>
     <use xlink:href="#mb6a8f45567" x="118.188329" y="174.810386" style="fill: #58a6ff"/>
     <use xlink:href="#mb6a8f45567" x="139.681919" y="173.819892" style="fill: #58a6ff"/>
     <use xlink:href="#mb6a8f45567" x="161.175509" y="158.13612" style="fill: #58a6ff"/>
     <use xlink:href="#mb6a8f45567" x="182.669099" y="147.810463" style="fill: #58a6ff"/>
     <use xlink:href="#mb6a8f45567" x="204.162688" y="144.726367" style="fill: #58a6ff"/>
     <use xlink:href="#mb6a8f45567" x="225.656278" y="143.530939" style="fill: #58a6ff"/>
     <use xlink:href="#mb6a8f45567" x="247.149868" y="137.868403" style="fill: #58a6ff"/>
     <use xlink:href="#mb6a8f45567" x="268.643458" y="128.591004" style="fill: #58a6ff"/>
     <use xlink:href="#mb6a8f45567" x="290.137047" y="121.844245" style="fill: #58a6ff"/>
     <use xlink:href="#mb6a8f45567" x="311.630637" y="104.924524" style="fill: #58a6ff"/>
     <use xlink:href="#mb6a8f45567" x="333.124227" y="99.492056" style="fill: #58a6ff"/>
     <use xlink:href="#mb6a8f45567" x="354.617817" y="97.387254" style="fill: #58a6ff"/>
     <use xlink:href="#mb6a8f45567" x="376.111406" y="94.527331" style="fill: #58a6ff"/>
     <use xlink:href="#mb6a8f45567" x="397.604996" y="89.460342" style="fill: #58a6ff"/>
     <use xlink:href="#mb6a8f45567" x="419.098586" y="85.71331" style="fill: #58a6ff"/>
     <use xlink:href="#mb6a8f45567" x="440.592175" y="82.0568" style="fill: #58a6ff"/>
     <use xlink:href="#mb6a8f45567" x="462.085765" y="81.051494" style="fill: #58a6ff"/>
     <use xlink:href="#mb6a8f45567" x="483.579355" y="73.885417" style="fill: #58a6ff"/>
     <use xlink:href="#mb6a8f45567" x="505.072945" y="69.560628" style="fill: #58a6ff"/>
     <use xlink:href="#mb6a8f45567" x="526.566534" y="63.627751" style="fill: #58a6ff"/>
     <use xlink:href="#mb6a8f45567" x="548.060124" y="55.944688" style="fill: #58a6ff"/>
     <use xlink:href="#mb6a8f45567" x="569.553714" y="54.681095" style="fill: #58a6ff"/>
     <use xlink:href="#mb6a8f45567" x="591.047304" y="49.429246" style="fill: #58a6ff"/>
     <use xlink:href="#mb6a8f45567" x="612.540893" y="46.524156" style="fill: #58a6ff"/>
     <use xlink:href="#mb6a8f45567" x="634.034483" y="42.68279" style="fill: #58a6ff"/>
     <use xlink:href="#mb6a8f45567" x="655.528073" y="40.911279" style="fill: #58a6ff"/>
     <use xlink:href="#mb6a8f45567" x="677.021663" y="36.676202" style="fill: #58a6ff"/>
     <use xlink:href="#mb6a8f45567" x="698.515252" y="36.168979" style="fill: #58a6ff"/>
    </g>
   </g>
  </g>
 </g>
 <defs>
  <clipPath id="p9d52fed967">
   <rect x="40.811406" y="24.798438" width="670.6" height="170.558125"/>
  </clipPath>
 </defs>
</svg>
